<?xml version="1.0"?>
<svg version="1.1" xmlns="http://www.w3.org/2000/svg" width="250px" height="60px"><path fill="#067331" d="M13.23046875,46.71875q0.1171875-3.1640625,0.205078125-6.484375t0.166015625-6.552734375t0.1171875-6.279296875t0.0390625-5.68359375q0.0390625-0.52734375,0.91796875-0.83984375t2.099609375-0.458984375t2.578125-0.185546875t2.412109375-0.0390625q0.234375,0,0.9765625-0.01953125l0.37109375,0q0.56640625,0,1.19140625,0.0390625q0.8203125,0.05859375,1.435546875,0.25390625t0.615234375,0.56640625q0,0.2734375-0.21484375,0.439453125t-0.498046875,0.244140625t-0.5859375,0.09765625t-0.419921875,0.01953125q-1.8359375,0-3.6328125-0.05859375q-0.48828125-0.01953125-0.99609375-0.01953125q-1.328125,0-2.6953125,0.1171875q0.078125,0.234375,0.126953125,1.416015625t0.048828125,2.666015625t-0.01953125,2.900390625t0,2.177734375l0,5.078125q0.60546875-0.0390625,1.19140625-0.0390625l1.171875,0l0.78125-0.0390625q0.390625-0.01953125,0.8203125-0.01953125q0.44921875,0,0.91796875,0.01953125q0.9375,0.0390625,1.708984375,0.224609375t0.771484375,0.654296875q0,0.3515625-0.29296875,0.517578125t-0.654296875,0.244140625t-0.68359375,0.078125l-0.361328125,0q-1.11328125,0-2.314453125-0.078125t-2.236328125-0.078125q-0.1953125,0.078125-0.419921875,0.05859375t-0.400390625-0.01953125q0,2.9296875-0.05859375,5.830078125t-0.13671875,5.771484375q0,0.56640625-0.712890625,0.7421875t-1.357421875,0.17578125q-0.72265625,0-1.142578125-0.17578125t-0.595703125-0.576171875t-0.21484375-1.064453125q-0.01953125-0.37109375-0.0390625-0.8203125q0-0.37109375,0.01953125-0.80078125z M29.1615234375,37.24609375q0-0.80078125,0.283203125-1.34765625t1.201171875-0.546875q0.3515625,0,0.87890625,0.107421875t0.60546875,0.537109375q0.1953125,1.15234375,0.21484375,2.5t0.13671875,2.5390625q0.44921875-0.87890625,1.15234375-1.89453125t1.6015625-1.875t1.953125-1.42578125t2.1484375-0.56640625q0.078125,0,0.29296875,0.05859375t0.400390625,0.166015625t0.224609375,0.244140625t-0.21484375,0.25390625q-0.078125,0.234375-0.33203125,0.283203125t-0.44921875,0.048828125q-0.1171875,0-0.37109375-0.09765625q-1.4453125,0.76171875-2.4609375,2.0703125t-1.66015625,2.900390625t-0.9375,3.359375t-0.29296875,3.447265625q0,0.83984375-0.380859375,1.015625t-1.220703125,0.17578125q-0.44921875,0-0.947265625-0.09765625t-0.693359375-0.625q-0.3515625-1.11328125-0.576171875-2.55859375t-0.341796875-2.978515625t-0.166015625-3.017578125t-0.048828125-2.67578125z M43.041796875,43.515625q0-1.3671875,0.302734375-3.22265625t1.025390625-3.515625t1.904296875-2.822265625t2.978515625-1.162109375q1.6796875,0,2.51953125,0.966796875t0.83984375,2.607421875q0,1.07421875-0.400390625,2.353515625t-1.142578125,2.421875t-1.7578125,1.904296875t-2.265625,0.76171875l-0.5078125-0.0390625q0,0.52734375,0.15625,1.416015625t0.458984375,1.767578125t0.78125,1.54296875t1.162109375,0.6640625q0.99609375,0,1.9140625-0.80078125t1.73828125-1.77734375t1.5234375-1.77734375t1.2890625-0.80078125q0.3125,0,0.64453125,0.09765625t0.37109375,0.546875q0,0.2734375-0.146484375,0.44921875t-0.263671875,0.390625q-0.60546875,1.03515625-1.318359375,1.97265625t-1.611328125,1.69921875t-1.962890625,1.201171875t-2.353515625,0.439453125q-1.6796875,0-2.79296875-0.595703125t-1.796875-1.6015625t-0.986328125-2.32421875t-0.302734375-2.763671875z M46.537890625,42.03125l0.546875,0.48828125q0.390625,0.3515625,0.78125,0.15625t0.703125-0.712890625t0.576171875-1.279296875t0.46875-1.5625t0.302734375-1.5625t0.09765625-1.26953125l0-0.6640625t-0.05859375-0.703125t-0.205078125-0.556640625t-0.458984375-0.283203125q-0.09765625-0.01953125-0.17578125-0.01953125q-0.6640625,0-1.1328125,0.83984375q-0.5078125,0.9375-0.8203125,2.275390625t-0.44921875,2.744140625t-0.17578125,2.109375z M59.3634765625,43.515625q0-1.3671875,0.302734375-3.22265625t1.025390625-3.515625t1.904296875-2.822265625t2.978515625-1.162109375q1.6796875,0,2.51953125,0.966796875t0.83984375,2.607421875q0,1.07421875-0.400390625,2.353515625t-1.142578125,2.421875t-1.7578125,1.904296875t-2.265625,0.76171875l-0.5078125-0.0390625q0,0.52734375,0.15625,1.416015625t0.458984375,1.767578125t0.78125,1.54296875t1.162109375,0.6640625q0.99609375,0,1.9140625-0.80078125t1.73828125-1.77734375t1.5234375-1.77734375t1.2890625-0.80078125q0.3125,0,0.64453125,0.09765625t0.37109375,0.546875q0,0.2734375-0.146484375,0.44921875t-0.263671875,0.390625q-0.60546875,1.03515625-1.318359375,1.97265625t-1.611328125,1.69921875t-1.962890625,1.201171875t-2.353515625,0.439453125q-1.6796875,0-2.79296875-0.595703125t-1.796875-1.6015625t-0.986328125-2.32421875t-0.302734375-2.763671875z M62.8595703125,42.03125l0.546875,0.48828125q0.390625,0.3515625,0.78125,0.15625t0.703125-0.712890625t0.576171875-1.279296875t0.46875-1.5625t0.302734375-1.5625t0.09765625-1.26953125l0-0.6640625t-0.05859375-0.703125t-0.205078125-0.556640625t-0.458984375-0.283203125q-0.09765625-0.01953125-0.17578125-0.01953125q-0.6640625,0-1.1328125,0.83984375q-0.5078125,0.9375-0.8203125,2.275390625t-0.44921875,2.744140625t-0.17578125,2.109375z M75.68515625,49.6484375q0-0.56640625,0.048828125-1.19140625t0.087890625-1.171875l0.1171875-2.9296875q0.1953125-3.515625,0.478515625-6.9140625t0.478515625-6.875q0.1171875-1.9140625,0.17578125-3.759765625t0.17578125-3.759765625q-0.078125-0.15625-0.078125-0.21484375q0-0.2734375,0.205078125-0.4296875t0.478515625-0.263671875t0.576171875-0.146484375t0.458984375-0.0390625l0.44921875,0q0.60546875,0.078125,0.87890625,0.380859375t0.3515625,0.72265625t0.0390625,0.8984375t-0.0390625,0.888671875q0,2.83203125-0.13671875,5.771484375t-0.3125,5.8984375t-0.322265625,5.91796875t-0.146484375,5.849609375l0,1.3671875q0,0.91796875-0.517578125,1.2109375t-1.435546875,0.29296875q-0.80078125,0-1.40625-0.3515625t-0.60546875-1.15234375z M84.6435546875,42.71484375q0-1.328125,0.361328125-2.55859375t1.083984375-2.197265625t1.806640625-1.54296875t2.509765625-0.576171875q0.87890625,0,1.943359375,0.263671875t2.001953125,0.78125t1.5625,1.318359375t0.625,1.8359375q0,0.48828125-0.166015625,0.7421875t-0.673828125,0.25390625l-0.21484375-0.0390625q0.56640625,1.5234375,0.9765625,3.125t0.80078125,3.203125q0.15625,0.3125,0.234375,0.556640625t0.078125,0.478515625q0,0.3125-0.17578125,0.517578125t-0.458984375,0.302734375t-0.5859375,0.13671875t-0.537109375,0.0390625q-0.83984375,0-1.259765625-0.29296875t-0.60546875-0.80078125t-0.224609375-1.142578125t-0.15625-1.279296875q-0.234375,0.76171875-0.615234375,1.484375t-0.8984375,1.298828125t-1.220703125,0.91796875t-1.58203125,0.341796875q-1.2890625,0-2.16796875-0.7421875t-1.416015625-1.826171875t-0.78125-2.314453125t-0.244140625-2.28515625z M87.4169921875,42.44140625q0,0.72265625,0.09765625,1.5234375t0.322265625,1.58203125t0.576171875,1.474609375t0.87890625,1.220703125q0.95703125-1.03515625,1.416015625-2.51953125t0.8203125-2.861328125t0.8203125-2.36328125t1.416015625-0.986328125q0.60546875,0,1.015625,0.21484375q-0.1953125-0.48828125-0.64453125-0.947265625t-1.005859375-0.83984375t-1.15234375-0.625t-1.123046875-0.244140625q-0.15625,0-0.361328125,0.048828125t-0.322265625,0.009765625q-0.80078125,0.234375-1.318359375,0.810546875t-0.83984375,1.357421875t-0.458984375,1.6015625t-0.13671875,1.54296875z M101.590234375,42.8125l0-0.56640625q0-0.703125,0.0390625-1.328125q0.0390625-0.87890625,0.0390625-1.4453125q0-0.3125,0.0390625-0.712890625t0.1953125-0.634765625q0.1953125-0.1953125,0.458984375-0.400390625t0.576171875-0.205078125q0.99609375,0,1.5625,0.224609375t0.60546875,0.927734375l0.078125,0.60546875q0.3515625-0.83984375,0.9375-2.080078125t1.357421875-2.36328125t1.73828125-1.9140625t2.041015625-0.791015625q0.99609375,0,1.640625,0.9375t1.025390625,2.392578125t0.537109375,3.2421875t0.21484375,3.505859375t0.078125,3.134765625t0.13671875,2.138671875q0.078125,0.60546875,0.263671875,1.279296875t0.185546875,1.240234375q0,0.15625-0.224609375,0.302734375t-0.478515625,0.244140625t-0.517578125,0.15625t-0.380859375,0.05859375q-0.76171875,0-1.083984375-1.142578125t-0.400390625-2.861328125t-0.078125-3.720703125t-0.13671875-3.720703125t-0.556640625-2.861328125t-1.337890625-1.181640625q-0.83984375,0-1.73828125,1.083984375t-1.54296875,2.880859375q-0.625,1.796875-0.859375,4.08203125q-0.078125,0.72265625-0.078125,1.4453125q0,1.58203125,0.33203125,3.1640625q0.0390625,0.2734375-0.224609375,0.41015625t-0.654296875,0.21484375t-0.791015625,0.09765625t-0.615234375,0.01953125q-0.76171875,0-1.220703125-0.537109375t-0.712890625-1.376953125t-0.341796875-1.884765625t-0.107421875-2.060546875z M119.3376953125,42.32421875q0-1.40625,0.361328125-2.822265625t1.123046875-2.5390625t1.943359375-1.826171875t2.783203125-0.703125q0.68359375,0,1.50390625,0.166015625t1.513671875,0.52734375t1.171875,0.9375t0.478515625,1.416015625q0,0.52734375-0.2734375,0.703125t-0.72265625,0.17578125l-0.13671875-0.1953125t-0.380859375-0.498046875t-0.517578125-0.64453125t-0.52734375-0.576171875q-0.80078125-0.80078125-1.50390625-0.859375l-0.15625,0q-0.5859375,0-1.09375,0.3515625q-0.56640625,0.4296875-1.005859375,1.2109375t-0.732421875,1.66015625t-0.458984375,1.77734375t-0.166015625,1.484375q0,0.80078125,0.185546875,1.826171875t0.625,1.943359375t1.11328125,1.54296875t1.728515625,0.625q0.95703125,0,1.73828125-0.46875t1.494140625-1.044921875t1.396484375-1.03515625t1.40625-0.458984375q0.3125,0,0.634765625,0.078125t0.322265625,0.41015625l0,0.1171875q-0.3515625,0.91796875-1.19140625,1.62109375t-1.884765625,1.220703125t-2.16796875,0.771484375t-2.001953125,0.25390625q-1.640625,0-2.880859375-0.537109375t-2.060546875-1.474609375t-1.240234375-2.255859375t-0.419921875-2.880859375z M136.38203125,43.515625q0-1.3671875,0.302734375-3.22265625t1.025390625-3.515625t1.904296875-2.822265625t2.978515625-1.162109375q1.6796875,0,2.51953125,0.966796875t0.83984375,2.607421875q0,1.07421875-0.400390625,2.353515625t-1.142578125,2.421875t-1.7578125,1.904296875t-2.265625,0.76171875l-0.5078125-0.0390625q0,0.52734375,0.15625,1.416015625t0.458984375,1.767578125t0.78125,1.54296875t1.162109375,0.6640625q0.99609375,0,1.9140625-0.80078125t1.73828125-1.77734375t1.5234375-1.77734375t1.2890625-0.80078125q0.3125,0,0.64453125,0.09765625t0.37109375,0.546875q0,0.2734375-0.146484375,0.44921875t-0.263671875,0.390625q-0.60546875,1.03515625-1.318359375,1.97265625t-1.611328125,1.69921875t-1.962890625,1.201171875t-2.353515625,0.439453125q-1.6796875,0-2.79296875-0.595703125t-1.796875-1.6015625t-0.986328125-2.32421875t-0.302734375-2.763671875z M139.878125,42.03125l0.546875,0.48828125q0.390625,0.3515625,0.78125,0.15625t0.703125-0.712890625t0.576171875-1.279296875t0.46875-1.5625t0.302734375-1.5625t0.09765625-1.26953125l0-0.6640625t-0.05859375-0.703125t-0.205078125-0.556640625t-0.458984375-0.283203125q-0.09765625-0.01953125-0.17578125-0.01953125q-0.6640625,0-1.1328125,0.83984375q-0.5078125,0.9375-0.8203125,2.275390625t-0.44921875,2.744140625t-0.17578125,2.109375z M152.7037109375,37.24609375q0-0.80078125,0.283203125-1.34765625t1.201171875-0.546875q0.3515625,0,0.87890625,0.107421875t0.60546875,0.537109375q0.1953125,1.15234375,0.21484375,2.5t0.13671875,2.5390625q0.44921875-0.87890625,1.15234375-1.89453125t1.6015625-1.875t1.953125-1.42578125t2.1484375-0.56640625q0.078125,0,0.29296875,0.05859375t0.400390625,0.166015625t0.224609375,0.244140625t-0.21484375,0.25390625q-0.078125,0.234375-0.33203125,0.283203125t-0.44921875,0.048828125q-0.1171875,0-0.37109375-0.09765625q-1.4453125,0.76171875-2.4609375,2.0703125t-1.66015625,2.900390625t-0.9375,3.359375t-0.29296875,3.447265625q0,0.83984375-0.380859375,1.015625t-1.220703125,0.17578125q-0.44921875,0-0.947265625-0.09765625t-0.693359375-0.625q-0.3515625-1.11328125-0.576171875-2.55859375t-0.341796875-2.978515625t-0.166015625-3.017578125t-0.048828125-2.67578125z M174.1947265625,43.76953125q0-4.23828125,0.380859375-8.486328125t1.591796875-8.369140625q0.3515625-1.23046875,0.91796875-2.431640625t1.38671875-2.138671875t1.953125-1.5234375t2.6953125-0.5859375l0.41015625,0.0390625q1.6796875,0.234375,2.48046875,1.357421875t0.80078125,2.802734375q0,0.44921875-0.107421875,1.123046875t-0.341796875,1.298828125t-0.634765625,1.064453125t-1.005859375,0.439453125q-0.2734375-0.0390625-0.498046875-0.09765625t-0.419921875-0.25390625q0.3125-0.68359375,0.556640625-1.42578125t0.244140625-1.69921875q0-0.3515625-0.05859375-0.8984375t-0.224609375-1.083984375t-0.439453125-0.9375t-0.76171875-0.400390625q-1.23046875,0-2.0703125,1.376953125t-1.40625,3.515625t-0.83984375,4.7265625t-0.419921875,5t-0.166015625,4.35546875t-0.01953125,2.744140625q0,0.9375-0.01953125,2.0703125l0,0.25390625q0.01953125,0.99609375,0.13671875,1.89453125q0.15625,1.015625,0.60546875,1.7578125t1.40625,0.859375q0.29296875,0.0390625,0.56640625,0.0390625q1.1328125,0,2.05078125-0.64453125q1.1328125-0.80078125,2.01171875-2.080078125t1.5625-2.8125t1.259765625-2.900390625t1.123046875-2.265625t1.1328125-0.8984375q0.1953125,0,0.5859375,0.078125t0.390625,0.37109375q0,0.078125-0.0390625,0.21484375t-0.09765625,0.21484375q-0.52734375,2.0703125-1.337890625,4.296875t-2.0703125,4.052734375t-3.0859375,2.978515625t-4.384765625,1.15234375q-1.8359375,0-2.978515625-0.693359375t-1.7578125-1.85546875t-0.83984375-2.626953125t-0.224609375-2.96875z M195.00859375,23.2421875q0-0.91796875,0.224609375-1.337890625t0.64453125-0.5859375t1.015625-0.126953125t1.396484375,0.0390625q2.03125,0,4.1015625,0.625t3.73046875,1.826171875t2.67578125,2.958984375t1.015625,4.04296875q0,1.5234375-0.439453125,2.880859375t-1.240234375,2.5390625t-1.875,2.158203125t-2.36328125,1.69921875q0.52734375,0.52734375,1.3671875,1.865234375t1.66015625,2.8515625t1.455078125,2.939453125t0.751953125,2.1484375l-0.234375,0.3515625q-0.52734375,0.3125-1.26953125,0.33203125q-0.3515625,0-0.91796875-0.087890625t-0.72265625-0.517578125q-0.80078125-2.24609375-1.748046875-4.62890625t-2.333984375-4.296875l0-0.0390625q-0.48828125,0.1953125-0.966796875,0.380859375t-0.966796875,0.341796875q0.15625,2.16796875,0.322265625,4.267578125t0.166015625,4.248046875q0,0.2734375-0.263671875,0.439453125t-0.595703125,0.263671875t-0.673828125,0.13671875t-0.556640625,0.0390625q-0.1953125,0-0.556640625-0.0390625t-0.693359375-0.13671875t-0.576171875-0.283203125t-0.244140625-0.498046875q0-2.16796875-0.09765625-4.326171875t-0.21484375-4.306640625q-0.60546875-0.390625-0.60546875-1.015625q0-0.48828125,0.46875-0.6640625q-0.234375-4.12109375-0.537109375-8.22265625t-0.302734375-8.26171875z M198.54375,22.63671875q0.2734375,4.23828125,0.615234375,8.37890625t0.654296875,8.37890625q1.3671875-0.390625,2.548828125-1.357421875t2.041015625-2.177734375t1.337890625-2.63671875t0.478515625-2.83203125q0-1.5625-0.625-2.998046875t-1.66015625-2.509765625q-1.0546875-1.07421875-2.421875-1.6796875q-1.2109375-0.52734375-2.5390625-0.52734375l-0.3515625,0z M213.8498046875,46.8359375q-0.01953125-0.5859375-0.01953125-1.171875q0-1.8359375,0.1953125-3.69140625q0.234375-2.4609375,0.3125-4.84375q0.078125-2.79296875,0.234375-5.80078125q0.09765625-1.640625,0.09765625-3.2421875q0-1.30859375-0.05859375-2.59765625q0.1953125-0.44921875,0.517578125-0.60546875t0.810546875-0.15625q0.234375,0,0.498046875,0.0390625t0.458984375,0.1953125q0.2734375,0.0390625,0.673828125,0.078125t0.615234375,0.234375q0.078125,0.1171875,0.400390625,0.80078125t0.76171875,1.66015625t0.91796875,2.119140625t0.91796875,2.16796875t0.76171875,1.806640625t0.400390625,0.9765625q1.8359375-3.3203125,3.59375-6.826171875t3.84765625-6.611328125q0.1953125-0.2734375,0.673828125-0.400390625t0.791015625-0.126953125q0.83984375,0,1.220703125,0.400390625t0.498046875,1.025390625q0.078125,0.390625,0.09765625,0.83984375q0.01953125,0.234375-0.01953125,0.48828125q-0.078125,0.72265625-0.078125,1.3671875q0,4.55078125-0.3125,9.033203125t-0.56640625,9.052734375q-0.0390625,0.9375-0.0390625,1.953125t0.0390625,2.109375q0.01953125,0.390625,0.01953125,0.76171875q0,1.71875-0.29296875,3.203125q-0.2734375,0.44921875-0.8984375,0.56640625t-1.0546875,0.1171875q-0.91796875,0-1.7578125-0.4296875l-0.21484375-0.25390625l-0.078125-0.3125t-0.0390625-0.3125q0-2.83203125,0.205078125-5.703125t0.458984375-5.732421875t0.537109375-5.712890625t0.478515625-5.703125q-1.15234375,1.9140625-2.236328125,3.896484375t-2.041015625,4.033203125q-0.3515625,0.80078125-0.673828125,1.71875t-0.771484375,1.640625q-0.234375,0.3515625-0.791015625,0.4296875t-0.966796875,0.078125q-0.390625,0-0.810546875-0.13671875t-0.576171875-0.5859375q-0.72265625-2.20703125-1.54296875-4.31640625t-1.66015625-4.27734375q0,1.4453125,0.05859375,3.740234375t0.05859375,4.755859375t-0.078125,4.70703125t-0.37109375,3.5546875q-0.078125,0.48828125-0.634765625,0.60546875t-0.966796875,0.1171875q-0.3125,0-0.595703125-0.0390625t-0.556640625-0.15625z"/><path fill="#" d=""/></svg>
